<mxfile host="app.diagrams.net" modified="2020-06-05T17:09:02.483Z" agent="5.0 (Windows)" etag="ZXHdN18WePjksOeKgCxN" version="13.1.12" type="github">
  <diagram id="VJ4gBRLPfHEQcIUoVyoj" name="Page-1">
    <mxGraphModel dx="1038" dy="547" grid="1" gridSize="10" guides="1" tooltips="1" connect="1" arrows="1" fold="1" page="1" pageScale="1" pageWidth="827" pageHeight="1169" math="0" shadow="0">
      <root>
        <mxCell id="0" />
        <mxCell id="1" parent="0" />
        <mxCell id="-gcXNnlhB-4B4d6z5VCx-188" value="" style="edgeStyle=orthogonalEdgeStyle;rounded=0;orthogonalLoop=1;jettySize=auto;html=1;fontSize=12;" parent="1" edge="1">
          <mxGeometry relative="1" as="geometry">
            <Array as="points">
              <mxPoint x="10" y="509" />
              <mxPoint x="10" y="639" />
            </Array>
            <mxPoint x="50" y="639" as="targetPoint" />
          </mxGeometry>
        </mxCell>
        <mxCell id="-gcXNnlhB-4B4d6z5VCx-190" value="" style="edgeStyle=orthogonalEdgeStyle;rounded=0;orthogonalLoop=1;jettySize=auto;html=1;fontSize=12;" parent="1" edge="1">
          <mxGeometry relative="1" as="geometry">
            <Array as="points">
              <mxPoint x="30" y="535" />
              <mxPoint x="30" y="665" />
            </Array>
            <mxPoint x="50" y="665" as="targetPoint" />
          </mxGeometry>
        </mxCell>
        <mxCell id="-l_j1n_9Ub-t-qIlccOr-52" value="Spielfeld" style="swimlane;fontStyle=0;childLayout=stackLayout;horizontal=1;startSize=26;fillColor=none;horizontalStack=0;resizeParent=1;resizeParentMax=0;resizeLast=0;collapsible=1;marginBottom=0;" parent="1" vertex="1">
          <mxGeometry x="330" y="900" width="140" height="52" as="geometry" />
        </mxCell>
        <mxCell id="tpF-LeXYUOlSiwq5U07W-5" value="fährt auf" style="endArrow=block;endFill=1;html=1;edgeStyle=orthogonalEdgeStyle;align=left;verticalAlign=top;entryX=0;entryY=0;entryDx=0;entryDy=0;" edge="1" parent="-l_j1n_9Ub-t-qIlccOr-52" target="-l_j1n_9Ub-t-qIlccOr-60">
          <mxGeometry x="0.1707" relative="1" as="geometry">
            <mxPoint x="-70" y="10" as="sourcePoint" />
            <mxPoint x="90" y="10" as="targetPoint" />
            <Array as="points">
              <mxPoint x="-30" y="10" />
              <mxPoint x="-30" y="140" />
            </Array>
            <mxPoint as="offset" />
          </mxGeometry>
        </mxCell>
        <mxCell id="tpF-LeXYUOlSiwq5U07W-6" value="1" style="resizable=0;html=1;align=left;verticalAlign=bottom;labelBackgroundColor=#ffffff;fontSize=10;" connectable="0" vertex="1" parent="tpF-LeXYUOlSiwq5U07W-5">
          <mxGeometry x="-1" relative="1" as="geometry" />
        </mxCell>
        <mxCell id="DvyWiu1rD5Dh5u9udajw-22" value="Baufläche" style="text;strokeColor=none;fillColor=none;align=left;verticalAlign=top;spacingLeft=4;spacingRight=4;overflow=hidden;rotatable=0;points=[[0,0.5],[1,0.5]];portConstraint=eastwest;" parent="-l_j1n_9Ub-t-qIlccOr-52" vertex="1">
          <mxGeometry y="26" width="140" height="26" as="geometry" />
        </mxCell>
        <mxCell id="HwDk1v7BcjZM1RC5vHMe-6" value="Fläche für" style="endArrow=open;html=1;endSize=12;startArrow=diamondThin;startSize=14;startFill=0;edgeStyle=orthogonalEdgeStyle;exitX=0.5;exitY=1.038;exitDx=0;exitDy=0;exitPerimeter=0;entryX=0.5;entryY=0;entryDx=0;entryDy=0;" parent="1" source="DvyWiu1rD5Dh5u9udajw-22" target="-l_j1n_9Ub-t-qIlccOr-60" edge="1">
          <mxGeometry relative="1" as="geometry">
            <mxPoint x="340" y="1000" as="sourcePoint" />
            <mxPoint x="340" y="1020" as="targetPoint" />
          </mxGeometry>
        </mxCell>
        <mxCell id="HwDk1v7BcjZM1RC5vHMe-7" value="1" style="resizable=0;html=1;align=left;verticalAlign=top;labelBackgroundColor=#ffffff;fontSize=10;" parent="HwDk1v7BcjZM1RC5vHMe-6" connectable="0" vertex="1">
          <mxGeometry x="-1" relative="1" as="geometry">
            <mxPoint y="7.01" as="offset" />
          </mxGeometry>
        </mxCell>
        <mxCell id="HwDk1v7BcjZM1RC5vHMe-8" value="*" style="resizable=0;html=1;align=right;verticalAlign=top;labelBackgroundColor=#ffffff;fontSize=10;" parent="HwDk1v7BcjZM1RC5vHMe-6" connectable="0" vertex="1">
          <mxGeometry x="1" relative="1" as="geometry">
            <mxPoint x="10" y="-29.990000000000002" as="offset" />
          </mxGeometry>
        </mxCell>
        <mxCell id="-gcXNnlhB-4B4d6z5VCx-74" value="StraßenfeldKurve" style="swimlane;fontStyle=0;childLayout=stackLayout;horizontal=1;startSize=26;fillColor=none;horizontalStack=0;resizeParent=1;resizeParentMax=0;resizeLast=0;collapsible=1;marginBottom=0;" parent="1" vertex="1">
          <mxGeometry x="260" y="1230" width="140" height="52" as="geometry" />
        </mxCell>
        <mxCell id="-gcXNnlhB-4B4d6z5VCx-77" value="Bild/Farbe" style="text;strokeColor=none;fillColor=none;align=left;verticalAlign=top;spacingLeft=4;spacingRight=4;overflow=hidden;rotatable=0;points=[[0,0.5],[1,0.5]];portConstraint=eastwest;" parent="-gcXNnlhB-4B4d6z5VCx-74" vertex="1">
          <mxGeometry y="26" width="140" height="26" as="geometry" />
        </mxCell>
        <mxCell id="-gcXNnlhB-4B4d6z5VCx-78" value="StraßenfeldTKreuzung" style="swimlane;fontStyle=0;childLayout=stackLayout;horizontal=1;startSize=26;fillColor=none;horizontalStack=0;resizeParent=1;resizeParentMax=0;resizeLast=0;collapsible=1;marginBottom=0;" parent="1" vertex="1">
          <mxGeometry x="440" y="1230" width="140" height="52" as="geometry" />
        </mxCell>
        <mxCell id="HwDk1v7BcjZM1RC5vHMe-26" value="Bild/Farbe" style="text;strokeColor=none;fillColor=none;align=left;verticalAlign=top;spacingLeft=4;spacingRight=4;overflow=hidden;rotatable=0;points=[[0,0.5],[1,0.5]];portConstraint=eastwest;" parent="-gcXNnlhB-4B4d6z5VCx-78" vertex="1">
          <mxGeometry y="26" width="140" height="26" as="geometry" />
        </mxCell>
        <mxCell id="-gcXNnlhB-4B4d6z5VCx-70" value="StraßenfeldGerade" style="swimlane;fontStyle=0;childLayout=stackLayout;horizontal=1;startSize=26;fillColor=none;horizontalStack=0;resizeParent=1;resizeParentMax=0;resizeLast=0;collapsible=1;marginBottom=0;" parent="1" vertex="1">
          <mxGeometry x="80" y="1230" width="140" height="52" as="geometry" />
        </mxCell>
        <mxCell id="HwDk1v7BcjZM1RC5vHMe-25" value="Bild/Farbe" style="text;strokeColor=none;fillColor=none;align=left;verticalAlign=top;spacingLeft=4;spacingRight=4;overflow=hidden;rotatable=0;points=[[0,0.5],[1,0.5]];portConstraint=eastwest;" parent="-gcXNnlhB-4B4d6z5VCx-70" vertex="1">
          <mxGeometry y="26" width="140" height="26" as="geometry" />
        </mxCell>
        <mxCell id="-gcXNnlhB-4B4d6z5VCx-82" value="StraßenfeldXKreuzung" style="swimlane;fontStyle=0;childLayout=stackLayout;horizontal=1;startSize=26;fillColor=none;horizontalStack=0;resizeParent=1;resizeParentMax=0;resizeLast=0;collapsible=1;marginBottom=0;" parent="1" vertex="1">
          <mxGeometry x="620" y="1230" width="140" height="52" as="geometry" />
        </mxCell>
        <mxCell id="HwDk1v7BcjZM1RC5vHMe-27" value="Bild/Farbe" style="text;strokeColor=none;fillColor=none;align=left;verticalAlign=top;spacingLeft=4;spacingRight=4;overflow=hidden;rotatable=0;points=[[0,0.5],[1,0.5]];portConstraint=eastwest;" parent="-gcXNnlhB-4B4d6z5VCx-82" vertex="1">
          <mxGeometry y="26" width="140" height="26" as="geometry" />
        </mxCell>
        <mxCell id="HwDk1v7BcjZM1RC5vHMe-40" value="Extends" style="endArrow=block;endSize=16;endFill=0;html=1;exitX=0.5;exitY=0;exitDx=0;exitDy=0;entryX=0;entryY=0.25;entryDx=0;entryDy=0;" parent="1" source="-gcXNnlhB-4B4d6z5VCx-70" target="-l_j1n_9Ub-t-qIlccOr-60" edge="1">
          <mxGeometry x="-0.1331" y="-50" width="160" relative="1" as="geometry">
            <mxPoint x="90" y="1120" as="sourcePoint" />
            <mxPoint x="250" y="1120" as="targetPoint" />
            <Array as="points">
              <mxPoint x="150" y="1079" />
            </Array>
            <mxPoint as="offset" />
          </mxGeometry>
        </mxCell>
        <mxCell id="HwDk1v7BcjZM1RC5vHMe-41" value="Extends" style="endArrow=block;endSize=16;endFill=0;html=1;exitX=0.5;exitY=0;exitDx=0;exitDy=0;entryX=0;entryY=0.25;entryDx=0;entryDy=0;" parent="1" source="-gcXNnlhB-4B4d6z5VCx-74" target="-l_j1n_9Ub-t-qIlccOr-60" edge="1">
          <mxGeometry x="-0.3847" width="160" relative="1" as="geometry">
            <mxPoint x="160" y="1240" as="sourcePoint" />
            <mxPoint x="320" y="1080" as="targetPoint" />
            <Array as="points">
              <mxPoint x="330" y="1200" />
              <mxPoint x="240" y="1200" />
              <mxPoint x="240" y="1079" />
            </Array>
            <mxPoint as="offset" />
          </mxGeometry>
        </mxCell>
        <mxCell id="HwDk1v7BcjZM1RC5vHMe-43" value="Extends" style="endArrow=block;endSize=16;endFill=0;html=1;exitX=0.5;exitY=0;exitDx=0;exitDy=0;entryX=1;entryY=0.25;entryDx=0;entryDy=0;" parent="1" source="-gcXNnlhB-4B4d6z5VCx-78" target="-l_j1n_9Ub-t-qIlccOr-60" edge="1">
          <mxGeometry x="-0.6721" width="160" relative="1" as="geometry">
            <mxPoint x="510" y="1230" as="sourcePoint" />
            <mxPoint x="685" y="1082" as="targetPoint" />
            <Array as="points">
              <mxPoint x="510" y="1079" />
            </Array>
            <mxPoint as="offset" />
          </mxGeometry>
        </mxCell>
        <mxCell id="HwDk1v7BcjZM1RC5vHMe-44" value="Extends" style="endArrow=block;endSize=16;endFill=0;html=1;exitX=0.5;exitY=0;exitDx=0;exitDy=0;entryX=1;entryY=0.25;entryDx=0;entryDy=0;" parent="1" target="-l_j1n_9Ub-t-qIlccOr-60" edge="1">
          <mxGeometry x="-0.8347" y="50" width="160" relative="1" as="geometry">
            <mxPoint x="690" y="1230" as="sourcePoint" />
            <mxPoint x="685" y="1082" as="targetPoint" />
            <Array as="points">
              <mxPoint x="690" y="1200" />
              <mxPoint x="690" y="1079" />
            </Array>
            <mxPoint y="-100" as="offset" />
          </mxGeometry>
        </mxCell>
        <mxCell id="-l_j1n_9Ub-t-qIlccOr-56" value="Auto" style="swimlane;fontStyle=0;childLayout=stackLayout;horizontal=1;startSize=26;fillColor=none;horizontalStack=0;resizeParent=1;resizeParentMax=0;resizeLast=0;collapsible=1;marginBottom=0;" parent="1" vertex="1">
          <mxGeometry x="120" y="900" width="140" height="130" as="geometry" />
        </mxCell>
        <mxCell id="-l_j1n_9Ub-t-qIlccOr-57" value="Bild" style="text;strokeColor=none;fillColor=none;align=left;verticalAlign=top;spacingLeft=4;spacingRight=4;overflow=hidden;rotatable=0;points=[[0,0.5],[1,0.5]];portConstraint=eastwest;" parent="-l_j1n_9Ub-t-qIlccOr-56" vertex="1">
          <mxGeometry y="26" width="140" height="26" as="geometry" />
        </mxCell>
        <mxCell id="-l_j1n_9Ub-t-qIlccOr-58" value="Id" style="text;strokeColor=none;fillColor=none;align=left;verticalAlign=top;spacingLeft=4;spacingRight=4;overflow=hidden;rotatable=0;points=[[0,0.5],[1,0.5]];portConstraint=eastwest;" parent="-l_j1n_9Ub-t-qIlccOr-56" vertex="1">
          <mxGeometry y="52" width="140" height="26" as="geometry" />
        </mxCell>
        <mxCell id="-l_j1n_9Ub-t-qIlccOr-59" value="Position" style="text;strokeColor=none;fillColor=none;align=left;verticalAlign=top;spacingLeft=4;spacingRight=4;overflow=hidden;rotatable=0;points=[[0,0.5],[1,0.5]];portConstraint=eastwest;" parent="-l_j1n_9Ub-t-qIlccOr-56" vertex="1">
          <mxGeometry y="78" width="140" height="26" as="geometry" />
        </mxCell>
        <mxCell id="tpF-LeXYUOlSiwq5U07W-1" value="Richtung" style="text;strokeColor=none;fillColor=none;align=left;verticalAlign=top;spacingLeft=4;spacingRight=4;overflow=hidden;rotatable=0;points=[[0,0.5],[1,0.5]];portConstraint=eastwest;" vertex="1" parent="-l_j1n_9Ub-t-qIlccOr-56">
          <mxGeometry y="104" width="140" height="26" as="geometry" />
        </mxCell>
        <mxCell id="tpF-LeXYUOlSiwq5U07W-7" value="1" style="text;html=1;align=center;verticalAlign=middle;resizable=0;points=[];autosize=1;" vertex="1" parent="1">
          <mxGeometry x="305" y="1020" width="20" height="20" as="geometry" />
        </mxCell>
        <mxCell id="-l_j1n_9Ub-t-qIlccOr-60" value="Straßenfeld" style="swimlane;fontStyle=2;childLayout=stackLayout;horizontal=1;startSize=50;fillColor=none;horizontalStack=0;resizeParent=1;resizeParentMax=0;resizeLast=0;collapsible=1;marginBottom=0;fontSize=12;spacing=2;" parent="1" vertex="1">
          <mxGeometry x="325" y="1040" width="150" height="154" as="geometry" />
        </mxCell>
        <mxCell id="-l_j1n_9Ub-t-qIlccOr-61" value="Ein-/Ausgang" style="text;strokeColor=none;fillColor=none;align=left;verticalAlign=top;spacingLeft=4;spacingRight=4;overflow=hidden;rotatable=0;points=[[0,0.5],[1,0.5]];portConstraint=eastwest;" parent="-l_j1n_9Ub-t-qIlccOr-60" vertex="1">
          <mxGeometry y="50" width="150" height="26" as="geometry" />
        </mxCell>
        <mxCell id="-l_j1n_9Ub-t-qIlccOr-62" value="Sperrfläche" style="text;strokeColor=none;fillColor=none;align=left;verticalAlign=top;spacingLeft=4;spacingRight=4;overflow=hidden;rotatable=0;points=[[0,0.5],[1,0.5]];portConstraint=eastwest;" parent="-l_j1n_9Ub-t-qIlccOr-60" vertex="1">
          <mxGeometry y="76" width="150" height="26" as="geometry" />
        </mxCell>
        <mxCell id="-l_j1n_9Ub-t-qIlccOr-63" value="Straßenfläche" style="text;strokeColor=none;fillColor=none;align=left;verticalAlign=top;spacingLeft=4;spacingRight=4;overflow=hidden;rotatable=0;points=[[0,0.5],[1,0.5]];portConstraint=eastwest;" parent="-l_j1n_9Ub-t-qIlccOr-60" vertex="1">
          <mxGeometry y="102" width="150" height="26" as="geometry" />
        </mxCell>
        <mxCell id="tpF-LeXYUOlSiwq5U07W-12" value="Position" style="text;strokeColor=none;fillColor=none;align=left;verticalAlign=top;spacingLeft=4;spacingRight=4;overflow=hidden;rotatable=0;points=[[0,0.5],[1,0.5]];portConstraint=eastwest;" vertex="1" parent="-l_j1n_9Ub-t-qIlccOr-60">
          <mxGeometry y="128" width="150" height="26" as="geometry" />
        </mxCell>
        <mxCell id="tpF-LeXYUOlSiwq5U07W-4" value="verbunden" style="html=1;verticalAlign=bottom;endArrow=block;exitX=0;exitY=0.5;exitDx=0;exitDy=0;entryX=0;entryY=0.5;entryDx=0;entryDy=0;" edge="1" parent="-l_j1n_9Ub-t-qIlccOr-60" source="-l_j1n_9Ub-t-qIlccOr-61" target="-l_j1n_9Ub-t-qIlccOr-61">
          <mxGeometry x="0.4325" y="10" width="80" relative="1" as="geometry">
            <mxPoint x="45" y="20" as="sourcePoint" />
            <mxPoint x="125" y="20" as="targetPoint" />
            <Array as="points">
              <mxPoint x="-35" y="50" />
              <mxPoint x="-65" y="50" />
              <mxPoint x="-75" y="63" />
              <mxPoint x="-65" y="80" />
              <mxPoint x="-35" y="80" />
            </Array>
            <mxPoint as="offset" />
          </mxGeometry>
        </mxCell>
      </root>
    </mxGraphModel>
  </diagram>
</mxfile>
